<?xml version="1.0" standalone="no"?>
<!DOCTYPE svg PUBLIC "-//W3C//DTD SVG 20010904//EN"
 "http://www.w3.org/TR/2001/REC-SVG-20010904/DTD/svg10.dtd">
<svg version="1.0" xmlns="http://www.w3.org/2000/svg"
 width="512.000000pt" height="512.000000pt" viewBox="0 0 512.000000 512.000000"
 preserveAspectRatio="xMidYMid meet">
<metadata>
Created by potrace 1.14, written by Peter Selinger 2001-2017
</metadata>
<g transform="translate(0.000000,512.000000) scale(0.100000,-0.100000)"
fill="#000000" stroke="none">
<path d="M57 5027 c-12 -4 -30 -18 -39 -30 -17 -21 -18 -164 -18 -2429 0
-1568 3 -2416 10 -2433 5 -14 23 -31 39 -38 43 -18 4996 -17 5029 2 13 7 27
24 33 37 6 16 9 926 9 2433 l0 2408 -25 27 c-13 14 -32 27 -42 27 -87 6 -4980
2 -4996 -4z m4881 -166 c9 -1 12 -366 12 -1791 l0 -1790 -2390 0 -2390 0 0
1788 c0 984 2 1791 4 1793 4 3 4727 4 4764 0z m10 -4178 l-3 -428 -2385 0
-2385 0 -3 428 -2 427 2390 0 2390 0 -2 -427z"/>
<path d="M1385 4689 c-98 -11 -202 -38 -270 -71 -33 -17 -153 -99 -166 -114
-6 -8 -15 -14 -19 -14 -4 0 -47 40 -96 89 l-89 90 -62 -61 -61 -61 95 -95 96
-95 -35 -66 c-125 -234 -124 -513 3 -738 16 -29 29 -55 29 -58 0 -2 -41 -45
-90 -94 -50 -50 -90 -94 -90 -98 0 -4 25 -33 56 -64 l56 -57 78 76 c115 115
103 109 152 69 268 -220 686 -222 949 -5 26 21 50 38 53 38 3 0 46 -40 95 -89
l89 -89 60 62 61 61 -95 94 c-52 52 -93 97 -91 100 2 3 22 46 46 95 106 219
103 471 -9 685 -46 87 -53 68 72 190 l78 76 -61 61 -61 62 -89 -91 c-81 -82
-90 -89 -108 -76 -132 97 -198 132 -307 164 -74 22 -191 32 -269 24z m204
-184 c79 -19 172 -64 226 -109 l39 -33 -57 -57 c-31 -32 -57 -60 -57 -64 0
-11 104 -112 115 -112 5 0 32 23 59 51 l50 51 18 -34 c79 -148 84 -358 10
-521 l-27 -59 -56 56 -56 55 -56 -55 c-32 -31 -57 -60 -57 -65 0 -5 26 -35 57
-66 l57 -56 -34 -29 c-121 -101 -319 -150 -482 -119 -72 14 -207 76 -257 118
l-34 29 61 60 61 60 -60 62 -61 62 -54 -55 c-53 -55 -54 -55 -68 -32 -42 65
-74 200 -70 300 3 87 19 157 54 231 l28 58 54 -55 54 -56 63 61 62 60 -62 61
-62 61 34 29 c61 51 154 95 244 116 63 14 194 12 264 -4z"/>
<path d="M1353 4161 c-216 -98 -203 -403 20 -477 123 -41 263 23 315 145 19
46 19 146 0 192 -55 128 -214 195 -335 140z m136 -164 c37 -18 52 -64 36 -105
-27 -64 -115 -66 -147 -3 -19 39 -11 75 25 103 26 21 53 22 86 5z"/>
<path d="M3480 4669 c-99 -27 -208 -80 -275 -134 -30 -25 -57 -45 -60 -45 -3
0 -44 38 -91 85 -47 47 -88 85 -92 85 -3 0 -32 -26 -64 -57 l-57 -57 92 -92
c51 -51 92 -97 92 -101 0 -4 -19 -46 -43 -93 -107 -215 -104 -479 9 -689 22
-40 38 -75 37 -77 -2 -1 -44 -45 -95 -97 l-92 -94 57 -56 c32 -32 61 -57 65
-57 5 0 46 38 92 85 47 47 89 85 94 85 4 0 14 -7 22 -16 37 -44 163 -115 265
-148 131 -42 267 -49 395 -20 93 20 238 88 307 143 62 49 49 53 159 -56 39
-40 75 -73 80 -73 11 0 113 103 113 113 0 5 -41 48 -91 98 l-91 90 45 92 c25
50 53 124 63 162 17 72 23 227 12 300 -12 71 -49 178 -84 244 -40 73 -46 60
69 172 42 42 77 80 77 85 0 5 -26 34 -57 66 l-56 57 -77 -77 c-114 -115 -98
-110 -173 -54 -71 54 -143 91 -239 123 -94 31 -305 35 -408 8z m378 -178 c74
-27 134 -60 181 -98 l33 -28 -61 -61 -60 -61 56 -56 c30 -32 59 -57 64 -57 5
0 31 22 59 50 50 50 50 50 64 27 61 -93 86 -276 58 -407 -17 -77 -56 -170 -72
-170 -6 0 -34 23 -62 51 l-50 50 -27 -29 c-14 -17 -41 -44 -58 -61 l-33 -30
61 -62 62 -63 -27 -22 c-43 -38 -137 -89 -201 -110 -90 -29 -277 -27 -363 5
-76 28 -135 60 -182 99 l-35 30 62 59 63 60 -62 61 -62 61 -56 -56 -55 -55
-28 61 c-73 163 -69 371 11 519 l18 33 55 -55 54 -55 58 57 c31 31 57 60 57
65 0 4 -26 33 -57 63 l-58 56 36 31 c49 43 133 85 210 107 92 26 261 22 347
-9z"/>
<path d="M3600 4171 c-118 -38 -192 -145 -184 -263 7 -99 69 -184 160 -218
104 -38 198 -18 275 61 151 155 51 413 -164 425 -34 2 -73 0 -87 -5z m117
-176 c72 -50 23 -166 -64 -151 -34 7 -52 23 -62 60 -20 75 63 135 126 91z"/>
<path d="M1388 2985 c-2 -2 -21 -5 -43 -8 -81 -11 -140 -29 -213 -63 -70 -32
-177 -103 -194 -128 -5 -7 -45 26 -101 83 l-94 93 -60 -60 -60 -60 93 -94 c52
-51 94 -98 94 -103 0 -6 -10 -26 -23 -45 -64 -97 -105 -258 -101 -400 3 -118
31 -229 85 -334 l40 -80 -95 -95 -94 -96 59 -59 60 -59 36 34 c19 19 60 60 90
91 l55 57 49 -39 c144 -113 294 -165 479 -165 134 1 238 24 345 78 52 26 147
90 165 112 12 15 23 7 107 -77 l93 -92 59 59 60 60 -96 96 -95 96 31 55 c32
57 75 171 87 229 12 63 11 221 -2 288 -15 79 -46 166 -87 239 l-29 54 96 95
95 95 -61 60 -61 60 -91 -91 -92 -92 -25 22 c-123 108 -298 176 -471 183 -48
2 -89 2 -90 1z m167 -179 c82 -13 205 -68 270 -121 l30 -25 -63 -63 -62 -63
60 -59 60 -59 27 25 c15 13 38 36 52 52 14 15 28 27 32 27 11 0 58 -113 72
-176 18 -78 14 -224 -8 -289 -24 -69 -54 -135 -62 -135 -4 0 -31 23 -59 51
l-52 51 -61 -59 -60 -59 59 -59 c33 -33 60 -63 60 -67 0 -5 -33 -30 -73 -56
-192 -125 -437 -132 -627 -17 -31 19 -66 43 -80 55 l-24 21 62 62 61 62 -60
59 -59 60 -55 -54 c-53 -52 -55 -53 -69 -35 -8 11 -27 55 -41 99 -46 138 -38
292 22 429 14 31 28 57 32 57 3 0 29 -23 58 -52 l53 -52 60 59 60 59 -62 63
-62 63 23 18 c100 74 196 117 286 128 22 3 41 7 42 8 5 5 113 -1 158 -8z"/>
<path d="M1410 2469 c-61 -10 -101 -32 -145 -80 -48 -54 -67 -100 -67 -169 -2
-191 204 -316 371 -225 151 82 181 283 62 403 -60 59 -137 84 -221 71z m99
-193 c41 -43 25 -119 -27 -133 -41 -10 -62 -6 -88 18 -31 29 -32 84 -2 116 30
32 87 31 117 -1z"/>
<path d="M3618 2985 c-2 -2 -28 -5 -58 -9 -116 -12 -255 -70 -361 -152 l-57
-43 -83 84 c-46 47 -89 85 -96 85 -7 0 -38 -24 -68 -54 l-54 -55 95 -95 96
-95 -30 -53 c-38 -67 -79 -186 -91 -263 -12 -73 -7 -226 9 -286 19 -73 50
-151 82 -208 l31 -53 -97 -97 -96 -97 60 -59 61 -59 92 92 92 91 35 -30 c88
-76 245 -149 353 -166 67 -10 208 -10 271 0 111 18 246 79 344 157 l48 37 89
-88 c49 -49 92 -89 95 -89 9 0 110 108 110 117 0 4 -41 49 -91 99 l-90 91 40
79 c113 221 115 470 5 693 l-46 94 94 94 95 95 -61 59 -60 59 -92 -91 -92 -92
-24 23 c-70 67 -213 140 -325 166 -59 14 -216 27 -225 19z m152 -179 c89 -14
214 -71 279 -126 l24 -21 -61 -62 -62 -63 60 -59 60 -59 53 52 c29 29 55 52
58 52 4 0 18 -27 33 -60 57 -126 66 -290 24 -420 -10 -32 -45 -109 -54 -119
-3 -3 -29 19 -59 49 l-55 54 -59 -60 -60 -59 62 -62 61 -63 -34 -29 c-55 -47
-168 -98 -255 -116 -168 -35 -360 12 -490 119 l-30 25 58 58 c31 32 57 62 57
67 0 4 -25 33 -56 63 l-57 54 -51 -50 c-29 -28 -55 -51 -59 -51 -3 0 -15 19
-26 43 -44 99 -54 141 -55 247 -1 90 3 117 27 190 15 47 34 94 42 104 14 18
16 17 53 -20 73 -75 66 -74 128 -13 29 29 54 58 54 64 0 5 -25 34 -55 64 -30
30 -55 57 -55 61 0 12 89 71 155 101 100 47 230 64 345 45z"/>
<path d="M3613 2465 c-229 -52 -269 -357 -63 -469 169 -92 373 32 372 225 -1
163 -149 280 -309 244z m124 -203 c21 -33 22 -45 1 -89 -27 -55 -119 -47 -144
13 -15 37 -11 58 20 92 16 18 29 22 60 20 33 -2 45 -9 63 -36z"/>
<path d="M767 921 c-27 -9 -66 -33 -86 -53 -129 -124 -99 -330 59 -411 49 -25
63 -28 125 -24 39 3 84 12 100 20 119 62 171 198 124 321 -48 127 -191 192
-322 147z m145 -179 c32 -31 33 -75 3 -110 -68 -81 -190 10 -129 96 30 44 89
50 126 14z"/>
<path d="M1622 921 c-148 -52 -211 -223 -135 -363 83 -153 306 -173 414 -37
45 56 63 113 57 182 -14 168 -178 274 -336 218z m144 -182 c70 -65 -33 -183
-109 -125 -29 22 -41 70 -25 103 26 54 89 64 134 22z"/>
<path d="M2477 924 c-100 -35 -172 -139 -170 -244 1 -75 31 -138 88 -188 104
-92 258 -81 357 24 82 88 81 239 -4 339 -57 67 -185 100 -271 69z m122 -169
c76 -39 44 -155 -43 -155 -30 0 -74 37 -77 65 -5 37 11 74 39 89 34 19 46 19
81 1z"/>
<path d="M3337 925 c-117 -40 -185 -145 -174 -266 13 -143 127 -238 270 -227
72 6 113 24 160 72 123 123 85 336 -72 408 -54 25 -134 30 -184 13z m114 -170
c53 -28 60 -105 12 -141 -48 -36 -133 5 -133 64 0 36 32 79 63 85 12 2 23 5
25 6 2 0 16 -6 33 -14z"/>
<path d="M4180 921 c-172 -60 -222 -288 -92 -419 107 -106 289 -94 379 26 153
203 -47 476 -287 393z m139 -177 c61 -51 26 -144 -53 -144 -31 0 -74 28 -77
49 0 3 -2 15 -4 26 -6 29 29 83 57 88 43 8 46 7 77 -19z"/>
</g>
</svg>
